HIERARCHY
ROOT Hips
{
	OFFSET 0.058547 100.481255 -0.522458
	CHANNELS 6 Xposition Yposition Zposition Xrotation Yrotation Zrotation 
	JOINT Spine
	{
		OFFSET -0.279214 12.230705 -2.892139
		CHANNELS 3 Xrotation Yrotation Zrotation
		JOINT Spine1
		{
			OFFSET -0.232678 10.192256 -1.242257
			CHANNELS 3 Xrotation Yrotation Zrotation
			JOINT Spine1_split
			{
				OFFSET -0.232678 10.192256 -1.242257
				CHANNELS 3 Xrotation Yrotation Zrotation
				JOINT Spine2
				{
					OFFSET -0.232678 10.192256 -1.242257
					CHANNELS 3 Xrotation Yrotation Zrotation
					JOINT Neck
					{
						OFFSET -0.418821 17.814224 8.416937
						CHANNELS 3 Xrotation Yrotation Zrotation
						JOINT Head
						{
							OFFSET 0.000000 7.031097 3.806764
							CHANNELS 3 Xrotation Yrotation Zrotation
							JOINT HeadTop_End
							{
								OFFSET 0.000000 24.646591 12.978601
								CHANNELS 3 Xrotation Yrotation Zrotation
								End Site
								{
									OFFSET 0.000000 0.000000 0.000000
								}
							}
						}
					}
					JOINT LeftShoulder
					{
						OFFSET 8.476512 7.247673 -3.868757
						CHANNELS 3 Xrotation Yrotation Zrotation
						JOINT LeftShoulder_split
						{
							OFFSET 8.476512 7.247673 -3.868757
							CHANNELS 3 Xrotation Yrotation Zrotation
							JOINT LeftArm
							{
								OFFSET 9.308996 -2.777740 0.208551
								CHANNELS 3 Xrotation Yrotation Zrotation
								JOINT LeftForeArm
								{
									OFFSET 29.972336 0.000015 0.000022
									CHANNELS 3 Xrotation Yrotation Zrotation
									JOINT LeftHand
									{
										OFFSET 26.026470 0.000015 0.000033
										CHANNELS 3 Xrotation Yrotation Zrotation
										JOINT LeftHandThumb1
										{
											OFFSET 12.240555 -7.117950 9.230400
											CHANNELS 3 Xrotation Yrotation Zrotation
											JOINT LeftHandThumb2
											{
												OFFSET 4.138626 -2.389450 2.389374
												CHANNELS 3 Xrotation Yrotation Zrotation
												JOINT LeftHandThumb3
												{
													OFFSET 2.726952 -1.574417 1.574393
													CHANNELS 3 Xrotation Yrotation Zrotation
													JOINT LeftHandThumb4
													{
														OFFSET 3.940979 -2.275375 2.275301
														CHANNELS 3 Xrotation Yrotation Zrotation
														End Site
														{
															OFFSET 0.000000 0.000000 0.000000
														}
													}
												}
											}
										}
										JOINT LeftHandIndex1
										{
											OFFSET 24.424660 -1.966187 5.959913
											CHANNELS 3 Xrotation Yrotation Zrotation
											JOINT LeftHandIndex2
											{
												OFFSET 6.426682 0.000015 0.000035
												CHANNELS 3 Xrotation Yrotation Zrotation
												JOINT LeftHandIndex3
												{
													OFFSET 5.337883 -0.000031 0.000035
													CHANNELS 3 Xrotation Yrotation Zrotation
													JOINT LeftHandIndex4
													{
														OFFSET 4.409393 -0.000015 0.000044
														CHANNELS 3 Xrotation Yrotation Zrotation
														End Site
														{
															OFFSET 0.000000 0.000000 0.000000
														}
													}
												}
											}
										}
										JOINT LeftHandMiddle1
										{
											OFFSET 23.810127 0.000000 0.000041
											CHANNELS 3 Xrotation Yrotation Zrotation
											JOINT LeftHandMiddle2
											{
												OFFSET 7.176491 -0.000015 0.000051
												CHANNELS 3 Xrotation Yrotation Zrotation
												JOINT LeftHandMiddle3
												{
													OFFSET 6.774864 -0.000015 0.000032
													CHANNELS 3 Xrotation Yrotation Zrotation
													JOINT LeftHandMiddle4
													{
														OFFSET 5.402740 -0.027710 -0.077597
														CHANNELS 3 Xrotation Yrotation Zrotation
														End Site
														{
															OFFSET 0.000000 0.000000 0.000000
														}
													}
												}
											}
										}
										JOINT LeftHandRing1
										{
											OFFSET 22.908371 -0.858917 -6.017762
											CHANNELS 3 Xrotation Yrotation Zrotation
											JOINT LeftHandRing2
											{
												OFFSET 6.337524 0.000000 -0.000050
												CHANNELS 3 Xrotation Yrotation Zrotation
												JOINT LeftHandRing3
												{
													OFFSET 5.779289 0.000000 -0.000029
													CHANNELS 3 Xrotation Yrotation Zrotation
													JOINT LeftHandRing4
													{
														OFFSET 4.965714 0.000031 -0.000057
														CHANNELS 3 Xrotation Yrotation Zrotation
														End Site
														{
															OFFSET 0.000000 0.000000 0.000000
														}
													}
												}
											}
										}
										JOINT LeftHandPinky1
										{
											OFFSET 20.036995 -1.565994 -10.945109
											CHANNELS 3 Xrotation Yrotation Zrotation
											JOINT LeftHandPinky2
											{
												OFFSET 5.254700 -0.000015 0.000002
												CHANNELS 3 Xrotation Yrotation Zrotation
												JOINT LeftHandPinky3
												{
													OFFSET 4.810226 -0.000015 -0.000019
													CHANNELS 3 Xrotation Yrotation Zrotation
													JOINT LeftHandPinky4
													{
														OFFSET 3.647247 0.000015 -0.000044
														CHANNELS 3 Xrotation Yrotation Zrotation
														End Site
														{
															OFFSET 0.000000 0.000000 0.000000
														}
													}
												}
											}
										}
									}
								}
							}
						}
					}
					JOINT RightShoulder
					{
						OFFSET -7.570480 7.247673 -3.868757
						CHANNELS 3 Xrotation Yrotation Zrotation
						JOINT RightShoulder_split
						{
							OFFSET -7.570480 7.247673 -3.868757
							CHANNELS 3 Xrotation Yrotation Zrotation
							JOINT RightArm
							{
								OFFSET -9.309000 -2.777725 0.208549
								CHANNELS 3 Xrotation Yrotation Zrotation
								JOINT RightForeArm
								{
									OFFSET -29.972336 0.000061 -0.000048
									CHANNELS 3 Xrotation Yrotation Zrotation
									JOINT RightHand
									{
										OFFSET -26.026474 0.000092 0.000017
										CHANNELS 3 Xrotation Yrotation Zrotation
										JOINT RightHandThumb1
										{
											OFFSET -12.240570 -7.117905 9.230402
											CHANNELS 3 Xrotation Yrotation Zrotation
											JOINT RightHandThumb2
											{
												OFFSET -4.138580 -2.389465 2.389442
												CHANNELS 3 Xrotation Yrotation Zrotation
												JOINT RightHandThumb3
												{
													OFFSET -2.726990 -1.574402 1.574351
													CHANNELS 3 Xrotation Yrotation Zrotation
													JOINT RightHandThumb4
													{
														OFFSET -3.940971 -2.275345 2.275330
														CHANNELS 3 Xrotation Yrotation Zrotation
														End Site
														{
															OFFSET 0.000000 0.000000 0.000000
														}
													}
												}
											}
										}
										JOINT RightHandIndex1
										{
											OFFSET -24.424667 -1.966171 5.959853
											CHANNELS 3 Xrotation Yrotation Zrotation
											JOINT RightHandIndex2
											{
												OFFSET -6.426682 -0.000046 0.000010
												CHANNELS 3 Xrotation Yrotation Zrotation
												JOINT RightHandIndex3
												{
													OFFSET -5.337891 0.000015 0.000031
													CHANNELS 3 Xrotation Yrotation Zrotation
													JOINT RightHandIndex4
													{
														OFFSET -4.409386 0.000015 0.000044
														CHANNELS 3 Xrotation Yrotation Zrotation
														End Site
														{
															OFFSET 0.000000 0.000000 0.000000
														}
													}
												}
											}
										}
										JOINT RightHandMiddle1
										{
											OFFSET -23.810127 -0.000015 -0.000027
											CHANNELS 3 Xrotation Yrotation Zrotation
											JOINT RightHandMiddle2
											{
												OFFSET -7.176491 -0.000046 -0.000001
												CHANNELS 3 Xrotation Yrotation Zrotation
												JOINT RightHandMiddle3
												{
													OFFSET -6.774857 -0.000046 0.000038
													CHANNELS 3 Xrotation Yrotation Zrotation
													JOINT RightHandMiddle4
													{
														OFFSET -5.402740 -0.027740 -0.077594
														CHANNELS 3 Xrotation Yrotation Zrotation
														End Site
														{
															OFFSET 0.000000 0.000000 0.000000
														}
													}
												}
											}
										}
										JOINT RightHandRing1
										{
											OFFSET -22.908348 -0.858963 -6.017824
											CHANNELS 3 Xrotation Yrotation Zrotation
											JOINT RightHandRing2
											{
												OFFSET -6.337524 0.000046 -0.000019
												CHANNELS 3 Xrotation Yrotation Zrotation
												JOINT RightHandRing3
												{
													OFFSET -5.779289 0.000046 -0.000004
													CHANNELS 3 Xrotation Yrotation Zrotation
													JOINT RightHandRing4
													{
														OFFSET -4.965721 -0.000031 -0.000032
														CHANNELS 3 Xrotation Yrotation Zrotation
														End Site
														{
															OFFSET 0.000000 0.000000 0.000000
														}
													}
												}
											}
										}
										JOINT RightHandPinky1
										{
											OFFSET -20.036957 -1.566071 -10.945158
											CHANNELS 3 Xrotation Yrotation Zrotation
											JOINT RightHandPinky2
											{
												OFFSET -5.254700 0.000031 -0.000025
												CHANNELS 3 Xrotation Yrotation Zrotation
												JOINT RightHandPinky3
												{
													OFFSET -4.810226 -0.000015 -0.000048
													CHANNELS 3 Xrotation Yrotation Zrotation
													JOINT RightHandPinky4
													{
														OFFSET -3.647247 -0.000031 -0.000029
														CHANNELS 3 Xrotation Yrotation Zrotation
														End Site
														{
															OFFSET 0.000000 0.000000 0.000000
														}
													}
												}
											}
										}
									}
								}
							}
						}
					}
				}
			}
		}
	}
	JOINT LeftUpLeg
	{
		OFFSET 15.427091 -6.655090 0.678631
		CHANNELS 3 Xrotation Yrotation Zrotation
		JOINT LeftLeg
		{
			OFFSET 4.088469 -39.590321 13.023970
			CHANNELS 3 Xrotation Yrotation Zrotation
			JOINT LeftFoot
			{
				OFFSET -4.073973 -37.708702 -15.979749
				CHANNELS 3 Xrotation Yrotation Zrotation
				JOINT LeftToeBase
				{
					OFFSET 5.346369 -15.068922 20.645004
					CHANNELS 3 Xrotation Yrotation Zrotation
					JOINT LeftToe_End
					{
						OFFSET 2.754658 0.931270 11.300900
						CHANNELS 3 Xrotation Yrotation Zrotation
						End Site
						{
							OFFSET 0.000000 0.000000 0.000000
						}
					}
				}
			}
		}
	}
	JOINT RightUpLeg
	{
		OFFSET -15.569522 -6.655090 0.678631
		CHANNELS 3 Xrotation Yrotation Zrotation
		JOINT RightLeg
		{
			OFFSET -4.074467 -39.591820 13.023795
			CHANNELS 3 Xrotation Yrotation Zrotation
			JOINT RightFoot
			{
				OFFSET 4.088761 -37.707176 -15.979579
				CHANNELS 3 Xrotation Yrotation Zrotation
				JOINT RightToeBase
				{
					OFFSET -5.346370 -15.068919 20.645004
					CHANNELS 3 Xrotation Yrotation Zrotation
					JOINT RightToe_End
					{
						OFFSET -2.754656 0.931271 11.300900
						CHANNELS 3 Xrotation Yrotation Zrotation
						End Site
						{
							OFFSET 0.000000 0.000000 0.000000
						}
					}
				}
			}
		}
	}
}
MOTION
Frames: 4
Frame Time: 0.016667
1.698056 87.488182 -8.516379 -8.563615 0.667195 -6.578164 22.179714 0.388962 -10.272298 4.323408 0.146923 0.771316 0.000000 0.000000 0.000000 4.317600 0.254437 0.769915 6.233856 2.141238 -5.361025 32.391373 5.275867 -5.339068 0.000001 -0.000000 -0.000000 0.683437 -4.757082 -8.732323 0.000000 0.000000 0.000000 -17.873090 -16.423374 -56.238237 -0.000003 -12.739546 0.000002 -4.603514 -6.901603 8.721202 2.597386 15.572083 9.955934 3.449442 10.370076 1.748275 -1.130319 8.326547 6.302517 -0.000001 -0.000000 -0.000004 0.307597 1.516993 -16.945354 0.418432 2.334302 -20.322045 0.291612 1.958385 -16.937004 0.000000 0.000000 0.000001 0.495868 2.347307 -20.348759 1.011571 3.543451 -31.849841 0.402589 2.428515 -27.706565 -0.000001 -0.000002 -0.000001 0.868782 3.349680 -24.675807 2.067309 4.843163 -46.210454 1.715185 4.480304 -41.889759 -0.000001 0.000001 -0.000000 3.189823 7.692224 -27.870310 3.142000 1.589797 -57.990471 2.668840 5.353238 -52.971696 -0.000001 0.000001 -0.000001 -0.194349 2.291442 -1.723696 0.000000 0.000000 0.000000 -14.930172 10.570123 80.264497 0.000036 12.026224 0.000036 20.212014 11.860004 -9.576862 1.766695 -18.017417 -10.921455 1.798177 -7.969512 -2.668499 -2.786023 -6.333992 -6.883658 0.000001 0.000002 0.000003 3.047603 -8.674565 22.456161 0.207850 -1.667195 14.212182 0.170535 -1.512299 12.867146 0.000000 -0.000001 -0.000000 4.096451 -9.324941 27.966630 0.561375 -2.702642 23.464200 -0.467480 -2.026652 21.565878 -0.000002 0.000001 -0.000001 5.553198 -9.967437 34.921644 1.224332 -3.886440 34.961399 0.508883 -4.131678 33.253637 0.000001 -0.000001 -0.000002 6.823702 -10.327542 40.554870 1.909120 -4.714208 44.074425 1.779622 -4.577108 42.475604 0.000001 -0.000000 0.000000 -15.939889 10.495926 12.966191 40.559265 7.469985 3.753679 -16.766443 7.866104 -7.027271 -4.115596 -0.000027 -0.000004 -0.000000 0.000002 0.000000 -16.869025 -6.515206 -3.841407 29.329932 -7.452691 -0.305490 -0.446082 -12.334397 8.058943 -4.214269 0.000020 -0.000001 -0.000000 0.000001 0.000000 
1.755250 87.451355 -8.508814 -8.948104 0.983616 -6.583362 22.291591 0.624130 -10.360361 4.244833 0.179285 0.853541 0.000000 0.000000 0.000000 4.237878 0.289960 0.852520 6.296061 2.046057 -5.379585 32.415122 4.881099 -5.563024 -0.000001 -0.000000 0.000000 0.673838 -4.345954 -8.751197 0.000000 0.000000 0.000000 -19.404409 -17.877552 -58.036117 0.000002 -8.352614 0.000001 -4.767830 -5.735610 11.660070 2.624051 15.657838 9.943701 3.449443 10.370077 1.748278 -1.212514 8.171200 6.323781 0.000002 0.000001 0.000001 0.399866 1.784842 -16.307763 0.418890 2.335553 -20.333569 0.286928 1.942949 -16.799429 0.000000 -0.000000 -0.000001 0.529458 2.399523 -19.663881 1.035144 3.581061 -32.229289 0.412104 2.453100 -27.929859 -0.000001 -0.000001 -0.000001 0.789763 3.147219 -23.926515 2.139118 4.910742 -47.055079 1.768200 4.538550 -42.563895 0.000001 0.000000 0.000000 2.937289 7.327386 -27.046344 3.263408 1.663875 -59.205282 2.765521 5.424494 -54.001169 0.000000 -0.000002 0.000003 -0.200337 2.255768 -1.862650 0.000000 0.000000 0.000000 -15.445923 11.300405 81.081544 0.000036 11.288606 0.000025 22.204545 12.564713 -7.308156 1.763740 -17.992513 -10.911861 1.798407 -7.971574 -2.668945 -2.729033 -6.446221 -6.867181 0.000000 -0.000000 0.000002 3.146846 -8.842331 22.729104 0.207855 -1.667212 14.212334 0.170649 -1.512750 12.871216 -0.000004 -0.000002 0.000000 4.171707 -9.399972 28.239955 0.561526 -2.702979 23.467277 -0.445157 -2.016207 21.557047 -0.000001 -0.000002 -0.000002 5.573904 -9.937452 35.190788 1.224489 -3.886652 34.963557 0.535375 -4.110379 33.229850 0.000002 -0.000000 -0.000000 6.782389 -10.225156 40.817135 1.909126 -4.714201 44.074425 1.776566 -4.573769 42.437359 0.000000 0.000000 0.000001 -15.622470 10.503140 12.967786 40.647193 7.514609 3.785954 -16.848065 7.568612 -7.001268 -4.100137 -0.000009 -0.000001 -0.000000 -0.000000 -0.000000 -16.374219 -6.709775 -3.997255 29.379181 -7.438172 -0.211983 -0.547065 -12.371616 8.103302 -4.238728 0.000005 -0.000003 -0.000000 -0.000000 -0.000000 
1.802984 87.477455 -8.471995 -9.263109 1.353976 -6.560600 22.318789 0.786659 -10.428988 4.133711 0.201984 0.930895 0.000000 0.000000 0.000000 4.125795 0.314541 0.929983 6.334326 1.940318 -5.391290 32.282640 4.521312 -5.961183 -0.000000 -0.000001 0.000001 0.662094 -3.939411 -8.761943 0.000000 0.000000 0.000000 -20.464244 -19.100557 -59.645617 0.000007 -4.838182 0.000009 -5.286957 -4.012424 14.182743 2.648015 15.711546 9.915410 3.449442 10.370076 1.748277 -1.295790 8.013582 6.345340 0.000001 -0.000000 0.000002 0.493901 2.113343 -15.893010 0.419388 2.336899 -20.345762 0.281844 1.926056 -16.649001 0.000000 -0.000001 -0.000002 0.583174 2.540855 -19.149258 1.061035 3.621724 -32.641365 0.420903 2.475611 -28.134738 -0.000000 -0.000000 -0.000001 0.759514 3.065897 -23.283557 2.218233 4.982934 -47.972493 1.819795 4.593940 -43.212011 0.000000 0.000001 -0.000000 2.764912 7.103439 -26.284711 3.397039 1.741412 -60.525093 2.860428 5.491891 -54.998845 0.000001 0.000003 0.000001 -0.201596 2.145568 -1.996605 0.000000 0.000000 0.000000 -15.764609 11.888741 81.832155 0.000030 10.854787 0.000051 24.042957 13.275322 -4.938377 1.757197 -17.926883 -10.886884 1.797928 -7.971634 -2.668781 -2.677515 -6.547768 -6.851991 0.000002 -0.000000 0.000003 3.248409 -8.979957 23.102563 0.207859 -1.667234 14.212514 0.170018 -1.509971 12.846955 0.000001 0.000001 0.000000 4.252591 -9.467153 28.569278 0.561650 -2.703291 23.470161 -0.425868 -2.003395 21.522947 -0.000002 -0.000000 0.000001 5.609180 -9.926801 35.461806 1.224625 -3.886825 34.965446 0.556779 -4.088690 33.184549 -0.000000 -0.000001 -0.000001 6.766799 -10.162848 41.038980 1.909132 -4.714213 44.074432 1.772077 -4.568868 42.380955 -0.000001 0.000003 -0.000000 -15.301225 10.532135 12.956305 40.596363 7.559664 3.801344 -16.871715 7.193437 -6.964653 -4.092262 0.000007 0.000003 -0.000001 0.000000 0.000000 -15.842207 -6.904091 -4.164426 29.308687 -7.433305 -0.110028 -0.626022 -12.459866 8.150676 -4.260635 -0.000005 -0.000001 -0.000000 -0.000001 0.000000 
1.846827 87.570763 -8.404856 -9.520636 1.750741 -6.517576 22.262510 0.873757 -10.473247 3.999440 0.214996 0.991234 0.000000 0.000000 0.000000 3.990890 0.327721 0.990226 6.336054 1.838045 -5.398903 31.969339 4.256897 -6.515808 0.000001 -0.000000 0.000001 0.649430 -3.574096 -8.777000 0.000000 0.000000 0.000000 -20.869373 -19.999081 -60.934433 -0.000002 -2.505028 -0.000012 -6.007504 -1.925137 15.756594 2.669662 15.730696 9.871767 3.449442 10.370076 1.748278 -1.370152 7.872514 6.364693 0.000001 -0.000000 0.000003 0.585017 2.476193 -15.767478 0.419811 2.338031 -20.355965 0.277025 1.909860 -16.504906 -0.000000 0.000000 0.000003 0.651152 2.757953 -18.869514 1.087457 3.662548 -33.057043 0.428234 2.494165 -28.303788 0.000000 -0.000000 0.000002 0.773972 3.108057 -22.809186 2.299380 5.054611 -48.900077 1.864835 4.641276 -43.771523 -0.000000 0.000002 0.000000 2.676431 7.032860 -25.645926 3.533983 1.816681 -61.860217 2.943864 5.549110 -55.866149 -0.000001 -0.000000 0.000003 -0.198741 1.964396 -2.107621 0.000000 0.000000 0.000000 -15.870525 12.397960 82.487238 0.000030 10.729585 0.000010 25.460780 13.836980 -2.754242 1.745509 -17.833221 -10.855193 1.797005 -7.970314 -2.668239 -2.640248 -6.621282 -6.840698 0.000000 -0.000002 0.000000 3.348328 -9.082919 23.544330 0.207881 -1.667262 14.212639 0.168618 -1.503866 12.794260 -0.000004 0.000001 0.000002 4.335473 -9.525026 28.926780 0.561770 -2.703570 23.472579 -0.409837 -1.988577 21.465599 -0.000000 -0.000003 0.000001 5.657401 -9.937000 35.712208 1.224725 -3.886986 34.966921 0.572517 -4.067852 33.122354 0.000000 0.000000 0.000000 6.777847 -10.143721 41.202174 1.909130 -4.714202 44.074418 1.766695 -4.562976 42.313240 -0.000000 0.000003 0.000000 -14.952203 10.591452 12.932711 40.398725 7.605583 3.802601 -16.840359 6.763117 -6.919209 -4.089942 -0.000007 0.000000 0.000000 -0.000003 -0.000000 -15.260890 -7.080636 -4.321909 29.102835 -7.444326 -0.016051 -0.668304 -12.591990 8.209023 -4.276238 -0.000002 -0.000003 -0.000000 0.000001 -0.000000 
